<svg width="132" height="26" viewBox="0 0 132 26" fill="none" xmlns="http://www.w3.org/2000/svg">
<path fill-rule="evenodd" clip-rule="evenodd" d="M1.03589 0.780579H19.7689C23.317 0.780579 26.7292 3.17167 26.7292 6.92911C26.7292 9.41102 25.1678 11.8929 22.7157 12.5537L22.7312 12.683C23.7746 13.07 24.7642 13.5331 25.465 14.4447C26.1959 15.401 26.5463 16.615 26.5463 17.8061C26.5463 19.7571 25.6787 21.4203 24.1699 22.656C22.5714 23.9546 20.5152 24.7286 18.4514 24.7286H5.27781L7.59254 6.41289H0.205444L1.03589 0.780579ZM28.6865 9.2287H36.157L35.4331 12.0822H35.6693C36.4689 10.2604 37.9153 8.84101 40.0093 8.84101H40.078L39.0962 16.2113C38.7226 16.0967 38.3113 15.9682 37.9153 15.9682C35.9433 15.9682 35.014 18.0939 34.8234 19.7557L34.2368 24.7272H26.7068L28.6865 9.2287ZM51.7147 9.2287H59.3527L57.3421 24.7279H49.9095L50.7476 22.0637L50.5801 22.049C49.3769 23.7953 48.0825 25.154 45.7979 25.154C41.8909 25.154 39.3555 21.6627 39.3555 17.9737C39.3555 13.684 42.4165 8.75859 47.1231 8.75859C49.5976 8.75859 50.7098 9.96566 51.7147 12.0829L51.8367 12.0375L51.7147 9.2287ZM61.1881 9.2287H68.6894L67.9956 12.0822H68.1708C69.3972 10.2681 70.7456 8.77325 73.1065 8.77325C75.778 8.77325 78.1397 10.9897 78.1397 13.684C78.1397 13.8586 78.1327 14.0416 78.1095 14.2226L76.7843 24.7279H69.1611L70.159 16.6821C70.1807 16.4991 70.2038 16.3182 70.2038 16.1352C70.2038 15.5896 69.8002 15.0957 69.236 15.0957C68.4063 15.0957 67.9108 15.9542 67.8127 16.6821L66.7615 24.7279H59.2616L61.1881 9.2287ZM108.958 19.5671H116.131C115.035 23.4838 111.043 25.3587 107.19 25.3587C104.656 25.3587 101.929 24.577 100.147 22.6874C98.7985 21.252 98.1362 19.3163 98.1362 17.3583C98.1362 12.0452 102.675 8.6063 107.755 8.6063C112.552 8.6063 116.512 11.946 116.512 16.8428C116.512 17.3283 116.473 17.8061 116.437 18.2915H105.714V18.6555C105.714 19.6586 106.118 20.8957 107.321 20.8957C108.143 20.8957 108.675 20.2656 108.958 19.5671ZM91.6783 0.780579H99.1944L96.1641 24.7286H88.7701L89.501 22.049H89.3188C88.5332 23.8938 86.6375 25.1463 84.6269 25.1463C80.7354 25.1463 78.7031 21.4042 78.7031 17.9206C78.7031 15.5442 79.4789 13.1685 80.9793 11.309C82.1608 9.8518 83.9794 8.73554 85.9066 8.73554C86.9263 8.73554 87.9242 9.05407 88.7701 9.61639C89.6075 10.1703 90.0567 11.1951 90.4302 12.0829H90.5522V9.41102L91.6783 0.780579ZM131.316 10.1773L130.729 15.3318C129.366 14.4733 127.538 13.524 125.871 13.524C125.39 13.524 124.591 13.707 124.591 14.3287C124.591 14.7765 125.14 15.0189 125.512 15.0957L127.835 15.5749C129.807 15.9759 131.132 17.7376 131.132 19.7187C131.132 23.6437 127.065 25.3139 123.684 25.3139C121.24 25.3139 118.925 24.5693 116.74 23.5376L117.524 18.0191C118.842 19.3778 121.026 20.5772 122.954 20.5772C123.403 20.5772 124.157 20.281 124.127 19.7187C124.095 19.2646 123.539 19.0432 123.167 18.9517L120.608 18.2992C118.842 17.8515 117.723 16.4698 117.723 14.655C117.723 11.1106 121.181 8.74252 124.484 8.74252C126.837 8.74252 129.115 9.40264 131.316 10.1773Z" fill="white"/>
<path fill-rule="evenodd" clip-rule="evenodd" d="M15.7183 6.83765L15.3525 9.78268H16.5936C17.5838 9.78268 18.6651 9.25179 18.6651 8.11318C18.6651 7.17923 17.5838 6.83765 16.8073 6.83765H15.7183ZM14.6363 15.3319L14.1415 18.9447H15.9313C17.0736 18.9447 18.2236 18.11 18.2236 16.8952C18.2236 15.7112 17.0967 15.3319 16.0918 15.3319H14.6363ZM51.0216 16.8044C51.0216 15.8481 50.2984 14.845 49.2696 14.845C48.0516 14.845 47.2058 16.029 47.2058 17.16C47.2058 18.1847 47.861 19.2109 48.9879 19.2109C50.1919 19.2109 51.0216 17.9123 51.0216 16.8044ZM106.049 15.0811H109.528C109.437 14.1332 108.928 13.1531 107.823 13.1531C106.734 13.1531 106.209 14.1479 106.049 15.0811ZM89.9432 16.7359C89.9432 15.7713 89.2122 14.7849 88.1765 14.7849C86.9585 14.7849 86.1203 15.9843 86.1203 17.0999C86.1203 18.133 86.7826 19.1494 87.9095 19.1494C89.1204 19.1494 89.9432 17.8522 89.9432 16.7359Z" fill="#1D1D1D"/>
<path fill-rule="evenodd" clip-rule="evenodd" d="M1.03589 0.780579H19.7689C23.317 0.780579 26.7292 3.17167 26.7292 6.92911C26.7292 9.41102 25.1678 11.8929 22.7157 12.5537L22.7312 12.683C23.7746 13.07 24.7642 13.5331 25.465 14.4447C26.1959 15.401 26.5463 16.615 26.5463 17.8061C26.5463 19.7571 25.6787 21.4203 24.1699 22.656C22.5714 23.9546 20.5152 24.7286 18.4514 24.7286H5.27781L7.59254 6.41289H0.205444L1.03589 0.780579ZM28.6865 9.2287H36.157L35.4331 12.0822H35.6693C36.4689 10.2604 37.9153 8.84101 40.0093 8.84101H40.078L39.0962 16.2113C38.7226 16.0967 38.3113 15.9682 37.9153 15.9682C35.9433 15.9682 35.014 18.0939 34.8234 19.7557L34.2368 24.7272H26.7068L28.6865 9.2287ZM51.7147 9.2287H59.3527L57.3421 24.7279H49.9095L50.7476 22.0637L50.5801 22.049C49.3769 23.7953 48.0825 25.154 45.7979 25.154C41.8909 25.154 39.3555 21.6627 39.3555 17.9737C39.3555 13.684 42.4165 8.75859 47.1231 8.75859C49.5976 8.75859 50.7098 9.96566 51.7147 12.0829L51.8367 12.0375L51.7147 9.2287ZM61.1881 9.2287H68.6894L67.9956 12.0822H68.1708C69.3972 10.2681 70.7456 8.77325 73.1065 8.77325C75.778 8.77325 78.1397 10.9897 78.1397 13.684C78.1397 13.8586 78.1327 14.0416 78.1095 14.2226L76.7843 24.7279H69.1611L70.159 16.6821C70.1807 16.4991 70.2038 16.3182 70.2038 16.1352C70.2038 15.5896 69.8002 15.0957 69.236 15.0957C68.4063 15.0957 67.9108 15.9542 67.8127 16.6821L66.7615 24.7279H59.2616L61.1881 9.2287ZM108.958 19.5671H116.131C115.035 23.4838 111.043 25.3587 107.19 25.3587C104.656 25.3587 101.929 24.577 100.147 22.6874C98.7985 21.252 98.1362 19.3163 98.1362 17.3583C98.1362 12.0452 102.675 8.6063 107.755 8.6063C112.552 8.6063 116.512 11.946 116.512 16.8428C116.512 17.3283 116.473 17.8061 116.437 18.2915H105.714V18.6555C105.714 19.6586 106.118 20.8957 107.321 20.8957C108.143 20.8957 108.675 20.2656 108.958 19.5671ZM91.6783 0.780579H99.1944L96.1641 24.7286H88.7701L89.501 22.049H89.3188C88.5332 23.8938 86.6375 25.1463 84.6269 25.1463C80.7354 25.1463 78.7031 21.4042 78.7031 17.9206C78.7031 15.5442 79.4789 13.1685 80.9793 11.309C82.1608 9.8518 83.9794 8.73554 85.9066 8.73554C86.9263 8.73554 87.9242 9.05407 88.7701 9.61639C89.6075 10.1703 90.0567 11.1951 90.4302 12.0829H90.5522V9.41102L91.6783 0.780579ZM131.316 10.1773L130.729 15.3318C129.366 14.4733 127.538 13.524 125.871 13.524C125.39 13.524 124.591 13.707 124.591 14.3287C124.591 14.7765 125.14 15.0189 125.512 15.0957L127.835 15.5749C129.807 15.9759 131.132 17.7376 131.132 19.7187C131.132 23.6437 127.065 25.3139 123.684 25.3139C121.24 25.3139 118.925 24.5693 116.74 23.5376L117.524 18.0191C118.842 19.3778 121.026 20.5772 122.954 20.5772C123.403 20.5772 124.157 20.281 124.127 19.7187C124.095 19.2646 123.539 19.0432 123.167 18.9517L120.608 18.2992C118.842 17.8515 117.723 16.4698 117.723 14.655C117.723 11.1106 121.181 8.74252 124.484 8.74252C126.837 8.74252 129.115 9.40264 131.316 10.1773Z" fill="white"/>
<path fill-rule="evenodd" clip-rule="evenodd" d="M15.7183 6.83765L15.3525 9.78268H16.5936C17.5838 9.78268 18.6651 9.25179 18.6651 8.11318C18.6651 7.17923 17.5838 6.83765 16.8073 6.83765H15.7183ZM14.6363 15.3319L14.1415 18.9447H15.9313C17.0736 18.9447 18.2236 18.11 18.2236 16.8952C18.2236 15.7112 17.0967 15.3319 16.0918 15.3319H14.6363ZM51.0216 16.8044C51.0216 15.8481 50.2984 14.845 49.2696 14.845C48.0516 14.845 47.2058 16.029 47.2058 17.16C47.2058 18.1847 47.861 19.2109 48.9879 19.2109C50.1919 19.2109 51.0216 17.9123 51.0216 16.8044ZM106.049 15.0811H109.528C109.437 14.1332 108.928 13.1531 107.823 13.1531C106.734 13.1531 106.209 14.1479 106.049 15.0811ZM89.9432 16.7359C89.9432 15.7713 89.2122 14.7849 88.1765 14.7849C86.9585 14.7849 86.1203 15.9843 86.1203 17.0999C86.1203 18.133 86.7826 19.1494 87.9095 19.1494C89.1204 19.1494 89.9432 17.8522 89.9432 16.7359Z" fill="#1D1D1D"/>
</svg>
