<svg width="21" height="20" viewBox="0 0 21 20" fill="none" xmlns="http://www.w3.org/2000/svg">
<path d="M10.3836 0.72998C4.93503 0.72998 0.520538 4.91024 0.520538 10.0697C0.520538 15.2291 4.93503 19.4093 10.3836 19.4093C15.8321 19.4093 20.2466 15.2291 20.2466 10.0697C20.2466 4.91024 15.8321 0.72998 10.3836 0.72998ZM10.3836 4.34534C12.3164 4.34534 13.8833 5.82914 13.8833 7.65941C13.8833 9.48969 12.3164 10.9735 10.3836 10.9735C8.45072 10.9735 6.88377 9.48969 6.88377 7.65941C6.88377 5.82914 8.45072 4.34534 10.3836 4.34534ZM10.3836 17.3004C8.04904 17.3004 5.95713 16.2986 4.55722 14.732C5.3049 13.3988 6.76844 12.4799 8.47458 12.4799C8.57003 12.4799 8.66548 12.495 8.75695 12.5213C9.27396 12.6795 9.81484 12.7812 10.3836 12.7812C10.9523 12.7812 11.4971 12.6795 12.0102 12.5213C12.1016 12.495 12.1971 12.4799 12.2925 12.4799C13.9987 12.4799 15.4622 13.3988 16.2099 14.732C14.81 16.2986 12.7181 17.3004 10.3836 17.3004Z" fill="white"/>
</svg>
