<svg width="24" height="21" viewBox="0 0 24 21" fill="none" xmlns="http://www.w3.org/2000/svg">
<path d="M0.893574 3.72548H22.246C22.6996 3.72548 23.0672 3.359 23.0672 2.90688V0.860379C23.0672 0.408256 22.6996 0.0417786 22.246 0.0417786L0.893574 0.0417786C0.439989 0.0417786 0.0723267 0.408256 0.0723267 0.860379L0.0723267 2.90688C0.0723267 3.359 0.439989 3.72548 0.893574 3.72548ZM0.893574 11.9115H22.246C22.6996 11.9115 23.0672 11.545 23.0672 11.0929V9.04638C23.0672 8.59426 22.6996 8.22778 22.246 8.22778H0.893574C0.439989 8.22778 0.0723267 8.59426 0.0723267 9.04638L0.0723267 11.0929C0.0723267 11.545 0.439989 11.9115 0.893574 11.9115ZM0.893574 20.0975H22.246C22.6996 20.0975 23.0672 19.731 23.0672 19.2789V17.2324C23.0672 16.7803 22.6996 16.4138 22.246 16.4138H0.893574C0.439989 16.4138 0.0723267 16.7803 0.0723267 17.2324L0.0723267 19.2789C0.0723267 19.731 0.439989 20.0975 0.893574 20.0975Z" fill="white"/>
</svg>
